<?xml version="1.0" standalone="no"?>
<!DOCTYPE svg PUBLIC "-//W3C//DTD SVG 20010904//EN"
 "http://www.w3.org/TR/2001/REC-SVG-20010904/DTD/svg10.dtd">
<svg version="1.0" xmlns="http://www.w3.org/2000/svg"
 width="80.000000pt" height="80.000000pt" viewBox="0 0 80.000000 80.000000"
 preserveAspectRatio="xMidYMid meet">

<g transform="translate(0.000000,80.000000) scale(0.100000,-0.100000)"
fill="#000000" stroke="none">
<path d="M414 686 c-24 -18 -13 -30 20 -22 17 4 23 11 20 21 -8 19 -15 19 -40
1z"/>
<path d="M550 685 c0 -8 2 -15 4 -15 2 0 6 7 10 15 3 8 1 15 -4 15 -6 0 -10
-7 -10 -15z"/>
<path d="M540 622 c0 -8 9 -16 20 -19 11 -3 20 -13 21 -22 0 -13 1 -14 6 -1 3
8 12 23 21 33 16 18 15 19 -35 21 -22 1 -33 -4 -33 -12z"/>
<path d="M613 567 c-13 -28 -29 -35 -35 -16 -2 7 -18 3 -45 -10 -34 -18 -45
-20 -66 -10 -14 6 -33 9 -42 5 -14 -5 -14 -8 0 -36 17 -32 49 -50 91 -50 l25
0 -20 26 c-23 29 -18 48 10 41 10 -3 20 0 22 6 2 7 15 0 30 -15 15 -15 27 -23
27 -18 0 5 8 6 18 3 14 -6 15 -4 4 9 -7 9 -9 18 -5 20 5 1 6 19 3 38 l-5 34
-12 -27z"/>
<path d="M60 216 c0 -34 4 -46 15 -46 9 0 15 9 16 23 l0 22 11 -22 c18 -37 34
-27 34 20 -1 41 -2 42 -38 45 l-38 3 0 -45z m50 14 c0 -5 -4 -10 -10 -10 -5 0
-10 5 -10 10 0 6 5 10 10 10 6 0 10 -4 10 -10z"/>
<path d="M162 248 c-30 -30 0 -85 41 -74 30 7 43 37 27 66 -12 22 -49 27 -68
8z m46 -30 c-5 -32 -28 -35 -28 -4 0 17 5 26 16 26 10 0 14 -7 12 -22z"/>
<path d="M250 215 c0 -25 5 -45 10 -45 6 0 10 12 10 28 l1 27 15 -28 c21 -38
38 -29 42 21 2 33 0 42 -12 42 -9 0 -16 -8 -16 -17 -1 -17 -1 -17 -14 0 -23
30 -36 20 -36 -28z"/>
<path d="M345 243 c4 -10 10 -30 13 -45 5 -32 32 -38 32 -7 0 11 5 29 11 41
13 24 5 35 -15 19 -10 -8 -16 -9 -21 -1 -11 17 -28 11 -20 -7z"/>
<path d="M151 134 c0 -11 3 -14 6 -6 3 7 2 16 -1 19 -3 4 -6 -2 -5 -13z"/>
<path d="M400 141 c0 -6 4 -13 10 -16 6 -3 7 1 4 9 -7 18 -14 21 -14 7z"/>
<path d="M561 134 c0 -11 3 -14 6 -6 3 7 2 16 -1 19 -3 4 -6 -2 -5 -13z"/>
<path d="M350 131 c0 -6 5 -13 12 -17 6 -4 8 -3 4 4 -3 5 0 13 6 15 8 3 6 6
-4 6 -10 1 -18 -3 -18 -8z"/>
<path d="M465 130 c-4 -6 -11 -7 -17 -4 -7 4 -8 2 -4 -5 6 -8 12 -9 20 -2 7 6
17 7 21 3 5 -4 5 -1 1 6 -9 15 -13 15 -21 2z"/>
</g>
</svg>
